<svg width="200" height="200" viewBox="0 0 200 200" xmlns="http://www.w3.org/2000/svg"><circle cx="100" cy="100" r="100" fill="#1DB954"/><rect x="50" y="55" width="100" height="18" rx="4" fill="#fff" opacity=".9"/><rect x="50" y="85" width="100" height="18" rx="4" fill="#fff" opacity=".9"/><rect x="50" y="115" width="100" height="18" rx="4" fill="#fff" opacity=".9"/><circle cx="66" cy="64" r="6" fill="#1DB954" stroke="#fff" stroke-width="2"/><path d="M66 64V48l8-3v16" fill="none" stroke="#fff" stroke-width="2" stroke-linecap="round"/><circle cx="90" cy="94" r="6" fill="#1DB954" stroke="#fff" stroke-width="2"/><path d="M90 94V78l8-3v16" fill="none" stroke="#fff" stroke-width="2" stroke-linecap="round"/><path d="m60 119 8 8 12-17" fill="none" stroke="#fff" stroke-width="4" stroke-linecap="round" stroke-linejoin="round"/><path d="m130 40 30 30" stroke="#fff" stroke-width="4" stroke-linecap="round"/><path d="m155 65 10 10q15-15 0-30t-30 0Z" fill="#fff"/><path d="M125 125v10m-5-5h10m15-25v10m-5-5h10" stroke="#fff" stroke-width="3" stroke-linecap="round"/><path d="m135 140 4 4m-4 0 4-4" stroke="#fff" stroke-width="2" stroke-linecap="round"/></svg>